# xmcd CD database file
#
# Track frame offsets:
#        150
#        13318
#        29625
#        49077
#        65724
#        82133
#        99849
#        114981
#        133127
#        146984
#        159470
#        172901
#        188294
#        203120
#        220225
#        236117
#        250587
#        264487
#        282368
#        298536
#
# Disc length: 4260 seconds
#
# Revision: 0
# Processed by: cddbd v1.5.2PL0 Copyright (c) Steve Scherf et al.
# Submitted via: CUERipper 2.1.6
#
DISCID=2b10a214
DTITLE=Juice Newton - Come To Me/Well Kept Secret/Take Heart
DYEAR=2012
DGENRE=Country
TTITLE0=Low Down and Lonesome
TTITLE1=Come to Me
TTITLE2=Back Down to Lonely
TTITLE3=Crying Too Long
TTITLE4=Wouldn't Mind The Rain
TTITLE5=Good Luck Baby Jane
TTITLE6=Save a Heart
TTITLE7=The Fire Down Below
TTITLE8=Good Woman at Home
TTITLE9=You've Been Around
TTITLE10=So Many Ways
TTITLE11=Close Enough
TTITLE12=I’ll Never Love Again
TTITLE13=Go Easy
TTITLE14=A Love Like Yours (Don't Come Knocking Everyday)
TTITLE15=Hey Baby
TTITLE16=Tell My Baby Goodbye
TTITLE17=No Reason
TTITLE18=It’s Not Impossible
TTITLE19=If There Could Be
EXTD=
EXTT0=
EXTT1=
EXTT2=
EXTT3=
EXTT4=
EXTT5=
EXTT6=
EXTT7=
EXTT8=
EXTT9=
EXTT10=
EXTT11=
EXTT12=
EXTT13=
EXTT14=
EXTT15=
EXTT16=
EXTT17=
EXTT18=
EXTT19=
PLAYORDER=
